PathFileType	3	(X/Y/Z)	F:\ViconData\AntennenMessung\Messung1\Session1\ID22.trc
DataRate	CameraRate	NumFrames	NumMarkers	Units	OrigDataRate	OrigDataStartFrame	OrigNumFrames
120.0	120.0	4	70	mm	120.0	398	1060	
Frame#	Time	Ashort			Along			Atop			A4			Bshort			Blong			Btop			B4			Cshort			Clong			Ctop			C4			Dshort			Dlong			Dtop			D4			Eshort			Elong			Etop			E4			Fshort			Flong			Ftop			F4			Gshort			Glong			Gtop			G4			Hshort			Hlong			Htop			H4			I1			I2			I3			I4			I5			WandAshort			WandAlong			WandAtop			WandA4			WandA15			WandBshort			WandB4			WandB5			WandBtop			WandBlong			WandCshort			WandClong			WandCtop			WandC4			WandC5			Acenter			Aantenna			Bcenter			Bantenna			Ccenter			Cantenna			Dcenter			Dantenna			Ecenter			Eantenna			Fcenter			Fantenna			Gcenter			Gantenna			Hcenter			Hantenna			Icenter			Iantenna			
		X1	Y1	Z1	X2	Y2	Z2	X3	Y3	Z3	X4	Y4	Z4	X5	Y5	Z5	X6	Y6	Z6	X7	Y7	Z7	X8	Y8	Z8	X9	Y9	Z9	X10	Y10	Z10	X11	Y11	Z11	X12	Y12	Z12	X13	Y13	Z13	X14	Y14	Z14	X15	Y15	Z15	X16	Y16	Z16	X17	Y17	Z17	X18	Y18	Z18	X19	Y19	Z19	X20	Y20	Z20	X21	Y21	Z21	X22	Y22	Z22	X23	Y23	Z23	X24	Y24	Z24	X25	Y25	Z25	X26	Y26	Z26	X27	Y27	Z27	X28	Y28	Z28	X29	Y29	Z29	X30	Y30	Z30	X31	Y31	Z31	X32	Y32	Z32	X33	Y33	Z33	X34	Y34	Z34	X35	Y35	Z35	X36	Y36	Z36	X37	Y37	Z37	X38	Y38	Z38	X39	Y39	Z39	X40	Y40	Z40	X41	Y41	Z41	X42	Y42	Z42	X43	Y43	Z43	X44	Y44	Z44	X45	Y45	Z45	X46	Y46	Z46	X47	Y47	Z47	X48	Y48	Z48	X49	Y49	Z49	X50	Y50	Z50	X51	Y51	Z51	X52	Y52	Z52	X53	Y53	Z53	X54	Y54	Z54	X55	Y55	Z55	X56	Y56	Z56	X57	Y57	Z57	X58	Y58	Z58	X59	Y59	Z59	X60	Y60	Z60	X61	Y61	Z61	X62	Y62	Z62	X63	Y63	Z63	X64	Y64	Z64	X65	Y65	Z65	X66	Y66	Z66	X67	Y67	Z67	X68	Y68	Z68	X69	Y69	Z69	X70	Y70	Z70	
398	3.3083333	-1038.2258	214.69623	-1644.0824	-1109.5708	203.99306	-1599.46	-1063.6649	173.05316	-1625.7916	-1054.1401	262.37686	-1634.8605	-1352.5315	235.15144	1003.5242	-1281.3387	227.47461	1052.1134	-1322.6506	194.06282	1020.8077	-1284.5159	288.00629	1052.6838	813.97351	187.86067	1209.3975	892.26025	178.67868	1178.9265	844.52899	145.50163	1198.2085	861.04224	292.25345	1168.1919	1115.8381	210.07602	-1401.8556	1056.283	194.12015	-1460.1902	1094.8914	162.05986	-1423.863	1069.6854	239.53934	-1426.2585	-1204.5729	1686.0121	-1563.1783	-1129.1858	1688.5011	-1606.5309	-1173.2	1724.4509	-1581.912	-1134.0149	1581.0748	-1603.9755	-1239.5728	1699.0067	1119.4829	-1309.2976	1698.6287	1071.8979	-1270.5002	1736.3198	1096.9313	-1245.6675	1592.8794	1110.7311	988.86682	1664.2268	1162.106	957.25085	1700.528	1183.8209	921.74615	1662.3152	1214.89	939.80292	1659.4708	1159.7192	999.03784	1668.4618	-1579.453	1058.9337	1670.2073	-1518.7429	1024.9906	1708.0868	-1551.189	1059.2988	1672.1919	-1585.4586	-272.60974	1636.8478	-231.79793	-187.86562	1640.0675	-238.05505	-235.71304	1675.2227	-233.91765	-233.41753	1637.7687	-202.66046	-239.39027	1639.222	-281.35425																																														-1068.7321	210.11966	-1625.0024	-1074.0131	248.75168	-1624.1798	-1321.3237	231.78625	1024.8235	-1319.9603	270.54343	1028.9493	848.19666	183.84673	1196.0769	851.90448	222.61023	1193.9221	1088.5797	202.77298	-1428.5554	1082.6433	241.06505	-1432.9686	-1171.9738	1687.0884	-1581.9249	-1170.6945	1648.1094	-1581.9385	-1271.0342	1698.8359	1098.0114	-1271.5895	1659.8562	1099.1346	952.60266	1705.8646	1187.0134	972.58801	1734.0712	1168.9583	1026.5277	1669.2628	-1551.5892	1028.0707	1630.2954	-1551.9912	-234.36226	1638.3008	-234.62195	-232.93665	1599.334	-235.36523
399	3.3166667	-1038.2388	214.71199	-1644.098	-1109.5692	204.01102	-1599.4836	-1063.6532	173.06363	-1625.8268	-1054.1489	262.37952	-1634.8405	-1352.5587	235.15932	1003.5404	-1281.3419	227.42644	1052.0969	-1322.5905	194.09314	1020.7891	-1284.6101	287.97391	1052.6211	813.99432	187.65411	1209.3217	892.41815	178.60516	1178.9543	844.48279	145.50346	1198.2283	861.08673	292.42123	1168.3452	1115.8334	210.07477	-1401.8505	1056.2795	194.13142	-1460.2258	1094.9095	162.08162	-1423.8218	1069.6967	239.54396	-1426.2405	-1204.5742	1686.0171	-1563.1813	-1129.1742	1688.3785	-1606.0111	-1173.196	1724.4595	-1581.9114	-1134.0079	1581.1027	-1603.9757	-1239.5985	1699.0364	1119.493	-1309.3275	1698.6952	1071.9218	-1270.4757	1736.2919	1096.9258	-1245.6248	1592.8002	1110.7051	988.83771	1664.1957	1162.1172	957.29205	1700.4659	1183.8826	921.75244	1662.3304	1214.8497	939.78583	1659.439	1159.7161	999.04584	1668.447	-1579.4355	1058.9279	1670.2079	-1518.7452	1024.9858	1708.0892	-1551.1832	1059.2946	1672.2068	-1585.4574	-272.59818	1636.8567	-231.78151	-187.85815	1640.0684	-238.04308	-235.70892	1675.2286	-233.91925	-233.44415	1637.7793	-202.64914	-239.38843	1639.223	-281.34442																																														-1068.7191	210.13931	-1625.0336	-1073.9978	248.77159	-1624.2072	-1321.2802	231.76302	1024.8665	-1319.9324	270.5134	1029.0608	848.07764	183.72139	1196.1238	851.72455	222.49178	1193.989	1088.6208	202.78963	-1428.5243	1082.7052	241.08369	-1432.948	-1171.9208	1687.0397	-1581.7295	-1170.5924	1648.0629	-1581.5402	-1271.0499	1698.8823	1098.0356	-1271.6483	1659.9042	1099.1924	952.62494	1705.8319	1187.1027	972.64935	1734.0477	1169.1056	1026.5302	1669.2551	-1551.5802	1028.0797	1630.2878	-1551.9788	-234.36029	1638.3059	-234.60695	-232.937	1599.3385	-235.33275
400	3.325	-1038.2449	214.70137	-1644.0762	-1109.5969	204.08159	-1599.4615	-1063.6888	173.02885	-1625.8037	-1054.1703	262.35999	-1634.86	-1352.5555	235.21114	1003.5212	-1281.3528	227.51003	1052.105	-1322.5632	194.0867	1020.7518	-1284.4462	288.04788	1052.528	813.98352	187.56253	1209.3059	892.29205	178.65981	1178.9728	844.53876	145.44888	1198.2465	861.09991	292.48648	1168.4618	1115.8575	210.08565	-1401.8563	1056.2887	194.11108	-1460.2261	1094.8911	162.07399	-1423.8052	1069.641	239.5265	-1426.2677	-1204.5732	1686.0243	-1563.1764	-1129.1337	1688.3926	-1606.0195	-1173.2222	1724.535	-1581.9075	-1134.0063	1581.0988	-1603.9806	-1239.6608	1699.1427	1119.5316	-1309.4324	1698.8687	1071.9866	-1270.5002	1736.3252	1096.9366	-1245.7379	1592.9888	1110.7618	988.88269	1664.2393	1162.1021	957.29688	1700.5265	1183.9139	921.91089	1662.3652	1214.8589	939.82733	1659.4967	1159.748	999.03705	1668.4515	-1579.4219	1058.9186	1670.1884	-1518.7372	1024.9933	1708.0914	-1551.1841	1059.2903	1672.201	-1585.4689	-272.60782	1636.8685	-231.78601	-187.88446	1640.0719	-238.05814	-235.72081	1675.2365	-233.92105	-233.42999	1637.7817	-202.65871	-239.39566	1639.2257	-281.34387																																														-1068.7246	210.16484	-1625.0178	-1073.9642	248.80264	-1624.2002	-1321.2836	231.82884	1024.8589	-1319.9696	270.57794	1029.0757	848.05737	183.68874	1196.1072	851.62543	222.46455	1193.9377	1088.6198	202.78128	-1428.5457	1082.7205	241.07375	-1433.0051	-1171.9344	1687.0488	-1581.7123	-1170.5957	1648.0724	-1581.5093	-1271.1353	1699.0189	1098.0836	-1271.7987	1660.043	1099.2819	952.6792	1705.8313	1187.1027	972.66089	1734.0591	1169.0771	1026.5157	1669.2484	-1551.5746	1028.0431	1630.2803	-1551.9664	-234.37624	1638.3138	-234.6163	-232.95721	1599.3467	-235.35007
401	3.3333333	-1038.2217	214.59163	-1644.0593	-1109.4647	204.34142	-1599.3757	-1063.7075	173.41508	-1625.5737	-1054.1912	262.38184	-1634.8925	-1352.6014	235.11584	1003.6367	-1281.358	227.37939	1052.1115	-1322.6361	194.0294	1020.8318	-1284.4125	288.00381	1052.5292	813.99164	187.60036	1209.2515	892.8606	179.26378	1178.3937	844.51813	145.45815	1198.286	861.13611	292.33008	1168.0684	1115.8169	210.05473	-1401.8531	1056.3029	194.04073	-1460.1406	1094.8911	162.06696	-1423.8263	1069.6396	239.51982	-1426.3088	-1204.5781	1686.0187	-1563.17	-1129.1646	1688.3802	-1605.9884	-1173.2328	1724.5137	-1581.9037	-1134.0232	1581.0928	-1603.9684	-1239.5739	1699.0192	1119.4874	-1309.3826	1698.7762	1071.9489	-1270.4818	1736.3002	1096.9297	-1245.6382	1592.8376	1110.7021	988.87134	1664.23	1162.1357	957.27612	1700.4637	1183.9078	921.89331	1662.3104	1214.8501	939.81445	1659.4551	1159.7339	999.05487	1668.455	-1579.4335	1058.9185	1670.1814	-1518.7366	1024.9861	1708.0819	-1551.1954	1059.2955	1672.1863	-1585.4672	-272.60059	1636.8627	-231.78758	-187.87192	1640.0643	-238.03923	-235.70787	1675.2299	-233.91789	-233.39076	1637.75	-202.63513	-239.39001	1639.2195	-281.34106																																														-1068.6331	210.21613	-1624.9852	-1073.8063	248.86656	-1624.3671	-1321.3237	231.71935	1024.9182	-1319.9745	270.4689	1029.1196	847.72247	184.03494	1196.0541	850.94556	222.83665	1193.8093	1088.5682	202.72266	-1428.5403	1082.6138	241.00894	-1432.9795	-1171.9435	1687.0405	-1581.6993	-1170.6023	1648.0642	-1581.4869	-1271.0953	1698.9094	1098.0216	-1271.735	1659.9313	1099.1602	952.63452	1705.7869	1187.1063	972.60266	1734.027	1169.0852	1026.5111	1669.2467	-1551.595	1028.0414	1630.2788	-1551.996	-234.36359	1638.3075	-234.60886	-232.94487	1599.3401	-235.3381
